<?xml version="1.0" standalone="no"?><!DOCTYPE svg PUBLIC "-//W3C//DTD SVG 1.1//EN" "http://www.w3.org/Graphics/SVG/1.1/DTD/svg11.dtd"><svg t="1662523581871" class="icon" viewBox="0 0 1024 1024" version="1.1" xmlns="http://www.w3.org/2000/svg" p-id="20792" width="32" height="32" xmlns:xlink="http://www.w3.org/1999/xlink"><path d="M-589.328 960" p-id="20793" fill="#8e9ca9"></path><path d="M890.4 92 133.648 92C95.216 92 64 123.504 64 162.4l0 517.952c0 38.864 31.216 70.448 69.648 70.448l192.08 0 173.952 176c3.456 3.456 7.872 5.184 12.32 5.184 4.48 0 8.944-1.728 12.32-5.136l173.968-176.048L890.4 750.8c38.416 0 69.6-31.552 69.6-70.448L960 162.4C960 123.504 928.848 92 890.4 92L890.4 92 890.4 92M895.312 160.896 895.312 671.2 711.44 671.2c-25.552 0-50.048 10.272-68.128 28.576L512 832.656l-131.248-132.88c-18.08-18.336-42.64-28.592-68.192-28.592L128.752 671.184 128.752 160.896 895.312 160.896 895.312 160.896zM244.256 422.64c0-33.376 26.72-60.432 59.664-60.432 32.976 0 59.664 27.056 59.664 60.432 0 33.296-26.704 60.368-59.664 60.368C270.976 483.008 244.256 455.936 244.256 422.64L244.256 422.64 244.256 422.64M452.336 422.64c0-33.376 26.72-60.432 59.664-60.432 33.008 0 59.664 27.056 59.664 60.432 0 33.296-26.656 60.368-59.664 60.368C479.04 483.008 452.336 455.936 452.336 422.64L452.336 422.64M661.968 422.64c0-33.376 26.72-60.432 59.632-60.432 33.008 0 59.728 27.056 59.728 60.432 0 33.296-26.72 60.368-59.728 60.368C688.688 483.008 661.968 455.936 661.968 422.64L661.968 422.64 661.968 422.64" p-id="20794" fill="#8e9ca9"></path></svg>