<?xml version="1.0" standalone="no"?><!DOCTYPE svg PUBLIC "-//W3C//DTD SVG 1.1//EN" "http://www.w3.org/Graphics/SVG/1.1/DTD/svg11.dtd"><svg t="1666271564318" class="icon" viewBox="0 0 1024 1024" version="1.1" xmlns="http://www.w3.org/2000/svg" p-id="1386" width="32" height="32" xmlns:xlink="http://www.w3.org/1999/xlink"><path d="M728.705554 960.674743 295.477618 960.674743c-55.932893 0-101.438297-45.506427-101.438297-101.438297l0-693.167153c0-55.932893 45.506427-101.438297 101.438297-101.438297l433.227935 0c55.932893 0 101.438297 45.506427 101.438297 101.438297l0 693.167153C830.144874 915.168316 784.638447 960.674743 728.705554 960.674743zM295.477618 115.349121c-27.967982 0-50.719148 22.753213-50.719148 50.719148l0 693.167153c0 27.967982 22.751167 50.719148 50.719148 50.719148l433.227935 0c27.967982 0 50.719148-22.751167 50.719148-50.719148l0-693.167153c0-27.965935-22.751167-50.719148-50.719148-50.719148L295.477618 115.349121zM651.569756 717.644637 381.066949 717.644637c-43.698245 0-79.248925-35.550681-79.248925-79.250972L301.818023 230.524281c0-43.698245 35.550681-79.248925 79.248925-79.248925l270.50383 0c43.698245 0 79.248925 35.550681 79.248925 79.248925L730.819704 638.392642C730.818681 682.093956 695.269024 717.644637 651.569756 717.644637zM381.066949 201.995527c-15.730263 0-28.529777 12.797467-28.529777 28.529777L352.537172 638.392642c0 15.732309 12.799514 28.531823 28.529777 28.531823l270.50383 0c15.730263 0 28.529777-12.799514 28.529777-28.531823L680.100556 230.524281c0-15.732309-12.799514-28.529777-28.529777-28.529777L381.066949 201.994504z" p-id="1387" fill="#8e9ca9"></path><path d="M512.093121 806.402123m-44.379767 0a43.369 43.369 0 1 0 88.759533 0 43.369 43.369 0 1 0-88.759533 0Z" p-id="1388" fill="#8e9ca9"></path></svg>